<mxfile host="app.diagrams.net" agent="Mozilla/5.0 (X11; Linux x86_64) AppleWebKit/537.36 (KHTML, like Gecko) Chrome/128.0.0.0 Safari/537.36" version="26.0.11">
  <diagram name="Page-1" id="jUVHkNiBhRsNHml6jqBM">
    <mxGraphModel dx="1442" dy="765" grid="1" gridSize="10" guides="1" tooltips="1" connect="1" arrows="1" fold="1" page="1" pageScale="1" pageWidth="827" pageHeight="1169" math="0" shadow="0">
      <root>
        <mxCell id="0" />
        <mxCell id="1" parent="0" />
        <mxCell id="p_vPeVtUG2BRXo2iKguR-1" value="non-HT patients" style="shape=datastore;whiteSpace=wrap;html=1;" vertex="1" parent="1">
          <mxGeometry x="470" y="20" width="60" height="60" as="geometry" />
        </mxCell>
        <mxCell id="p_vPeVtUG2BRXo2iKguR-11" style="edgeStyle=orthogonalEdgeStyle;rounded=0;orthogonalLoop=1;jettySize=auto;html=1;exitX=1;exitY=0.5;exitDx=0;exitDy=0;entryX=0;entryY=0.5;entryDx=0;entryDy=0;" edge="1" parent="1" source="p_vPeVtUG2BRXo2iKguR-2" target="p_vPeVtUG2BRXo2iKguR-3">
          <mxGeometry relative="1" as="geometry" />
        </mxCell>
        <mxCell id="p_vPeVtUG2BRXo2iKguR-2" value="Pre-processing" style="rounded=0;whiteSpace=wrap;html=1;fontSize=16;" vertex="1" parent="1">
          <mxGeometry x="120" y="80" width="120" height="60" as="geometry" />
        </mxCell>
        <mxCell id="p_vPeVtUG2BRXo2iKguR-3" value="Split" style="rounded=0;whiteSpace=wrap;html=1;fontSize=20;" vertex="1" parent="1">
          <mxGeometry x="280" y="80" width="120" height="60" as="geometry" />
        </mxCell>
        <mxCell id="p_vPeVtUG2BRXo2iKguR-10" style="edgeStyle=orthogonalEdgeStyle;rounded=0;orthogonalLoop=1;jettySize=auto;html=1;exitX=1;exitY=0.5;exitDx=0;exitDy=0;entryX=0;entryY=0.5;entryDx=0;entryDy=0;" edge="1" parent="1" source="p_vPeVtUG2BRXo2iKguR-4" target="p_vPeVtUG2BRXo2iKguR-2">
          <mxGeometry relative="1" as="geometry" />
        </mxCell>
        <mxCell id="p_vPeVtUG2BRXo2iKguR-4" value="DB" style="shape=datastore;whiteSpace=wrap;html=1;" vertex="1" parent="1">
          <mxGeometry x="20" y="80" width="60" height="60" as="geometry" />
        </mxCell>
        <mxCell id="p_vPeVtUG2BRXo2iKguR-14" style="edgeStyle=orthogonalEdgeStyle;rounded=0;orthogonalLoop=1;jettySize=auto;html=1;exitX=0.5;exitY=1;exitDx=0;exitDy=0;entryX=0.5;entryY=0;entryDx=0;entryDy=0;" edge="1" parent="1" source="p_vPeVtUG2BRXo2iKguR-5" target="p_vPeVtUG2BRXo2iKguR-6">
          <mxGeometry relative="1" as="geometry" />
        </mxCell>
        <mxCell id="p_vPeVtUG2BRXo2iKguR-5" value="HT patients" style="shape=datastore;whiteSpace=wrap;html=1;" vertex="1" parent="1">
          <mxGeometry x="470" y="140" width="60" height="60" as="geometry" />
        </mxCell>
        <mxCell id="p_vPeVtUG2BRXo2iKguR-15" style="edgeStyle=orthogonalEdgeStyle;rounded=0;orthogonalLoop=1;jettySize=auto;html=1;exitX=0;exitY=0.5;exitDx=0;exitDy=0;entryX=1;entryY=0.5;entryDx=0;entryDy=0;" edge="1" parent="1" source="p_vPeVtUG2BRXo2iKguR-6" target="p_vPeVtUG2BRXo2iKguR-7">
          <mxGeometry relative="1" as="geometry" />
        </mxCell>
        <mxCell id="p_vPeVtUG2BRXo2iKguR-6" value="Synthetic data generation" style="rounded=0;whiteSpace=wrap;html=1;fontSize=16;" vertex="1" parent="1">
          <mxGeometry x="440" y="240" width="120" height="60" as="geometry" />
        </mxCell>
        <mxCell id="p_vPeVtUG2BRXo2iKguR-16" style="edgeStyle=orthogonalEdgeStyle;rounded=0;orthogonalLoop=1;jettySize=auto;html=1;exitX=0;exitY=0.5;exitDx=0;exitDy=0;entryX=1;entryY=0.5;entryDx=0;entryDy=0;" edge="1" parent="1" source="p_vPeVtUG2BRXo2iKguR-7" target="p_vPeVtUG2BRXo2iKguR-8">
          <mxGeometry relative="1" as="geometry" />
        </mxCell>
        <mxCell id="p_vPeVtUG2BRXo2iKguR-7" value="Post-processing" style="rounded=0;whiteSpace=wrap;html=1;fontSize=16;" vertex="1" parent="1">
          <mxGeometry x="280" y="240" width="120" height="60" as="geometry" />
        </mxCell>
        <mxCell id="p_vPeVtUG2BRXo2iKguR-17" style="edgeStyle=orthogonalEdgeStyle;rounded=0;orthogonalLoop=1;jettySize=auto;html=1;exitX=0;exitY=0.5;exitDx=0;exitDy=0;entryX=1;entryY=0.5;entryDx=0;entryDy=0;" edge="1" parent="1" source="p_vPeVtUG2BRXo2iKguR-8" target="p_vPeVtUG2BRXo2iKguR-9">
          <mxGeometry relative="1" as="geometry" />
        </mxCell>
        <mxCell id="p_vPeVtUG2BRXo2iKguR-8" value="Medication" style="rounded=0;whiteSpace=wrap;html=1;fontSize=19;" vertex="1" parent="1">
          <mxGeometry x="120" y="240" width="120" height="60" as="geometry" />
        </mxCell>
        <mxCell id="p_vPeVtUG2BRXo2iKguR-9" value="Synthethic patients" style="shape=datastore;whiteSpace=wrap;html=1;" vertex="1" parent="1">
          <mxGeometry x="20" y="240" width="60" height="60" as="geometry" />
        </mxCell>
        <mxCell id="p_vPeVtUG2BRXo2iKguR-12" value="" style="endArrow=classic;html=1;rounded=0;exitX=1;exitY=0.5;exitDx=0;exitDy=0;entryX=0;entryY=0.5;entryDx=0;entryDy=0;" edge="1" parent="1" source="p_vPeVtUG2BRXo2iKguR-3" target="p_vPeVtUG2BRXo2iKguR-5">
          <mxGeometry width="50" height="50" relative="1" as="geometry">
            <mxPoint x="480" y="130" as="sourcePoint" />
            <mxPoint x="530" y="80" as="targetPoint" />
            <Array as="points">
              <mxPoint x="440" y="110" />
              <mxPoint x="440" y="170" />
            </Array>
          </mxGeometry>
        </mxCell>
        <mxCell id="p_vPeVtUG2BRXo2iKguR-13" value="" style="endArrow=classic;html=1;rounded=0;entryX=0;entryY=0.5;entryDx=0;entryDy=0;exitX=1;exitY=0.5;exitDx=0;exitDy=0;" edge="1" parent="1" source="p_vPeVtUG2BRXo2iKguR-3" target="p_vPeVtUG2BRXo2iKguR-1">
          <mxGeometry width="50" height="50" relative="1" as="geometry">
            <mxPoint x="420" y="90" as="sourcePoint" />
            <mxPoint x="470" y="40" as="targetPoint" />
            <Array as="points">
              <mxPoint x="440" y="110" />
              <mxPoint x="440" y="50" />
            </Array>
          </mxGeometry>
        </mxCell>
        <mxCell id="p_vPeVtUG2BRXo2iKguR-18" value="1" style="text;html=1;align=center;verticalAlign=middle;whiteSpace=wrap;rounded=0;fontSize=24;" vertex="1" parent="1">
          <mxGeometry x="20" y="40" width="60" height="30" as="geometry" />
        </mxCell>
        <mxCell id="p_vPeVtUG2BRXo2iKguR-19" value="2" style="text;html=1;align=center;verticalAlign=middle;whiteSpace=wrap;rounded=0;fontSize=24;" vertex="1" parent="1">
          <mxGeometry x="150" y="40" width="60" height="30" as="geometry" />
        </mxCell>
        <mxCell id="p_vPeVtUG2BRXo2iKguR-20" value="3" style="text;html=1;align=center;verticalAlign=middle;whiteSpace=wrap;rounded=0;fontSize=24;" vertex="1" parent="1">
          <mxGeometry x="310" y="40" width="60" height="30" as="geometry" />
        </mxCell>
        <mxCell id="p_vPeVtUG2BRXo2iKguR-21" value="4" style="text;html=1;align=center;verticalAlign=middle;whiteSpace=wrap;rounded=0;fontSize=24;" vertex="1" parent="1">
          <mxGeometry x="470" y="95" width="60" height="30" as="geometry" />
        </mxCell>
        <mxCell id="p_vPeVtUG2BRXo2iKguR-22" value="5" style="text;html=1;align=center;verticalAlign=middle;whiteSpace=wrap;rounded=0;fontSize=24;" vertex="1" parent="1">
          <mxGeometry x="470" y="310" width="60" height="30" as="geometry" />
        </mxCell>
        <mxCell id="p_vPeVtUG2BRXo2iKguR-23" value="6" style="text;html=1;align=center;verticalAlign=middle;whiteSpace=wrap;rounded=0;fontSize=24;" vertex="1" parent="1">
          <mxGeometry x="310" y="310" width="60" height="30" as="geometry" />
        </mxCell>
        <mxCell id="p_vPeVtUG2BRXo2iKguR-24" value="7" style="text;html=1;align=center;verticalAlign=middle;whiteSpace=wrap;rounded=0;fontSize=24;" vertex="1" parent="1">
          <mxGeometry x="150" y="310" width="60" height="30" as="geometry" />
        </mxCell>
        <mxCell id="p_vPeVtUG2BRXo2iKguR-25" value="8" style="text;html=1;align=center;verticalAlign=middle;whiteSpace=wrap;rounded=0;fontSize=24;" vertex="1" parent="1">
          <mxGeometry x="20" y="310" width="60" height="30" as="geometry" />
        </mxCell>
      </root>
    </mxGraphModel>
  </diagram>
</mxfile>
